<svg fill="CurrentColor" viewBox="0 0 251 59" xmlns="http://www.w3.org/2000/svg">
<path d="M13.7224 37.496C14.0424 37.208 14.4904 37.272 14.7464 37.56C15.0024 37.88 14.9704 38.328 14.6824 38.584C14.6504 38.584 7.09837 45.048 13.7544 42.648C18.1704 41.08 31.0984 32.888 43.5464 25.016C57.3064 16.28 70.4904 7.928 71.9304 9.176C72.5064 9.688 72.2504 10.616 71.0344 12.024C62.1064 22.36 57.6584 28.696 56.2824 31.864C55.8984 32.824 55.7704 33.336 55.8664 33.432C55.9944 33.56 56.4424 33.4 57.2424 33.016C59.8664 31.8 64.5064 28.056 69.9784 22.616C72.5064 20.088 73.7544 19.448 74.3304 20.056C74.9064 20.632 74.4904 21.944 73.9144 23.704C73.1144 26.168 71.9624 29.72 72.7304 31.96C73.4984 34.136 76.3464 35.064 83.9304 32.408C84.3144 32.28 84.7304 32.472 84.8584 32.856C84.9864 33.24 84.7944 33.656 84.4104 33.784C75.7704 36.792 72.3784 35.352 71.3544 32.44C70.4264 29.752 71.6744 25.912 72.5384 23.256C72.9544 21.976 73.3704 21.144 73.3384 21.08C73.2424 20.984 72.7624 21.848 71.0024 23.64C65.4344 29.208 60.6024 33.016 57.8504 34.328C56.4744 34.968 55.4504 35.064 54.8744 34.488C54.2984 33.944 54.2984 32.888 54.9704 31.32C56.3784 28.024 60.9224 21.56 69.9464 11.096C70.5224 10.424 71.1304 10.392 71.0024 10.264C70.3624 9.72 57.5944 17.816 44.3144 26.232C31.8024 34.136 18.8424 42.36 14.2664 43.992C0.122375 49.08 13.6904 37.528 13.7224 37.496ZM90.2981 30.328C90.3621 30.392 90.3941 30.488 90.3941 30.584C90.9701 29.976 91.2901 29.496 91.2901 29.496C91.4821 29.208 91.8981 29.144 92.1861 29.336C92.4101 29.464 92.5061 29.72 92.4741 29.976C92.1221 32.664 91.9941 33.688 92.1541 33.72C92.4101 33.752 93.1781 33.304 94.3621 32.6C95.3541 32.024 96.6661 31.288 98.2661 30.488C98.5861 30.328 99.0021 30.488 99.1621 30.808C99.3221 31.128 99.1621 31.512 98.8421 31.672C97.2741 32.44 96.0261 33.176 95.0341 33.752C93.5941 34.584 92.6661 35.128 91.9621 35C91.0021 34.872 90.7781 34.008 90.9381 31.96C89.6901 33.24 87.7701 34.744 85.5941 34.968C84.3781 35.096 83.8021 34.584 83.7381 33.752C83.6741 33.176 83.9301 32.44 84.3781 31.768C84.7941 31.16 85.3701 30.52 86.0421 30.04C87.4501 29.048 89.1461 28.728 90.2981 30.328ZM89.6901 31.352C89.4981 31.352 89.3381 31.256 89.2421 31.096C88.6341 30.264 87.6421 30.52 86.8101 31.128C86.2981 31.48 85.8181 31.992 85.4661 32.504C85.1781 32.952 85.0181 33.336 85.0501 33.624C85.0501 33.656 85.1781 33.688 85.4661 33.656C87.1301 33.496 88.6341 32.408 89.6901 31.352ZM102.852 24.344C103.172 24.344 103.428 24.536 103.492 24.856C103.588 25.208 103.364 25.56 103.012 25.656C101.988 25.88 101.06 27.8 101.06 27.8C100.932 28.152 100.516 28.28 100.196 28.12C99.8756 27.96 99.7476 27.576 99.9076 27.256C99.9076 27.224 101.092 24.728 102.724 24.376C102.756 24.344 102.82 24.344 102.852 24.344ZM99.6516 29.08C99.7796 29.08 99.9396 29.144 100.068 29.24C100.324 29.464 100.356 29.88 100.132 30.168C99.3636 31.096 98.8516 31.896 98.6276 32.536C98.5316 32.824 98.4996 33.048 98.5316 33.24C98.5636 33.304 98.5956 33.368 98.6916 33.432C98.8516 33.496 99.0436 33.528 99.2996 33.528C100.1 33.528 101.348 33.144 102.596 32.664C104.516 31.928 106.404 30.968 106.98 30.552C107.268 30.36 107.684 30.424 107.908 30.712C108.1 31 108.036 31.416 107.748 31.64C107.108 32.088 105.06 33.112 103.076 33.88C101.668 34.424 100.26 34.84 99.2996 34.84C98.8516 34.84 98.4676 34.744 98.1476 34.616C97.6676 34.36 97.3796 34.008 97.2516 33.528C97.1556 33.112 97.2196 32.632 97.3796 32.12C97.6676 31.32 98.2436 30.36 99.1396 29.336C99.2676 29.176 99.4596 29.08 99.6516 29.08ZM112.111 30.328C112.175 30.392 112.207 30.488 112.207 30.584C112.783 29.976 113.103 29.496 113.103 29.496C113.295 29.208 113.711 29.144 113.999 29.336C114.223 29.464 114.319 29.72 114.287 29.976C113.935 32.664 113.807 33.688 113.967 33.72C114.223 33.752 114.991 33.304 116.175 32.6C117.167 32.024 118.479 31.288 120.079 30.488C120.399 30.328 120.815 30.488 120.975 30.808C121.135 31.128 120.975 31.512 120.655 31.672C119.087 32.44 117.839 33.176 116.847 33.752C115.407 34.584 114.479 35.128 113.775 35C112.815 34.872 112.591 34.008 112.751 31.96C111.503 33.24 109.583 34.744 107.407 34.968C106.191 35.096 105.615 34.584 105.551 33.752C105.487 33.176 105.743 32.44 106.191 31.768C106.607 31.16 107.183 30.52 107.855 30.04C109.263 29.048 110.959 28.728 112.111 30.328ZM111.503 31.352C111.311 31.352 111.151 31.256 111.055 31.096C110.447 30.264 109.455 30.52 108.623 31.128C108.111 31.48 107.631 31.992 107.279 32.504C106.991 32.952 106.831 33.336 106.863 33.624C106.863 33.656 106.991 33.688 107.279 33.656C108.943 33.496 110.447 32.408 111.503 31.352ZM152.982 44.536C152.694 44.792 152.246 44.792 151.958 44.504C151.67 44.216 151.702 43.768 151.99 43.48C152.022 43.448 156.406 39.128 162.422 33.528C160.918 33.72 159.414 33.944 157.878 34.232C149.526 35.672 140.694 38.232 132.822 42.648C132.47 42.84 132.022 42.712 131.83 42.36C131.638 42.008 131.766 41.56 132.118 41.368C140.15 36.856 149.142 34.264 157.622 32.792C159.894 32.408 162.102 32.088 164.246 31.832C174.518 22.328 188.374 10.136 193.878 8.024C195.51 7.416 196.47 7.736 196.886 8.824C197.878 11.448 193.398 20.024 189.686 27.16C188.918 28.632 188.15 30.072 187.51 31.32C188.15 31.352 188.726 31.416 189.27 31.448C192.566 31.736 193.782 32.376 193.686 33.24C193.622 34.296 191.51 35.096 189.142 35.992C187.862 36.504 186.518 37.016 185.43 37.56C184.662 37.912 184.182 37.784 183.894 37.208C183.606 36.6 184.214 34.936 185.27 32.664C180.342 32.408 173.046 32.344 164.886 33.24C158.166 39.48 153.046 44.472 152.982 44.536ZM194.39 9.4C189.302 11.32 176.63 22.392 166.646 31.608C174.454 30.872 181.334 30.968 185.942 31.224C186.678 29.784 187.51 28.184 188.374 26.488C191.958 19.64 196.278 11.352 195.51 9.336C195.414 9.144 195.062 9.112 194.39 9.4ZM186.806 32.728C186.07 34.2 185.526 35.352 185.302 35.992C186.358 35.512 187.51 35.064 188.63 34.648C190.55 33.912 192.214 33.272 192.246 33.144C192.246 33.144 191.382 33.112 189.11 32.92C188.47 32.856 187.67 32.792 186.806 32.728ZM201.07 24.344C201.39 24.344 201.646 24.536 201.71 24.856C201.806 25.208 201.582 25.56 201.23 25.656C200.206 25.88 199.278 27.8 199.278 27.8C199.15 28.152 198.734 28.28 198.414 28.12C198.094 27.96 197.966 27.576 198.126 27.256C198.126 27.224 199.31 24.728 200.942 24.376C200.974 24.344 201.038 24.344 201.07 24.344ZM197.87 29.08C197.998 29.08 198.158 29.144 198.286 29.24C198.542 29.464 198.574 29.88 198.35 30.168C197.582 31.096 197.07 31.896 196.846 32.536C196.75 32.824 196.718 33.048 196.75 33.24C196.782 33.304 196.814 33.368 196.91 33.432C197.07 33.496 197.262 33.528 197.518 33.528C198.318 33.528 199.566 33.144 200.814 32.664C202.734 31.928 204.622 30.968 205.198 30.552C205.486 30.36 205.902 30.424 206.126 30.712C206.318 31 206.254 31.416 205.966 31.64C205.326 32.088 203.278 33.112 201.294 33.88C199.886 34.424 198.478 34.84 197.518 34.84C197.07 34.84 196.686 34.744 196.366 34.616C195.886 34.36 195.598 34.008 195.47 33.528C195.374 33.112 195.438 32.632 195.598 32.12C195.886 31.32 196.462 30.36 197.358 29.336C197.486 29.176 197.678 29.08 197.87 29.08ZM206.361 30.936C206.393 31.288 206.137 31.608 205.753 31.672C205.401 31.704 205.081 31.416 205.049 31.064C204.953 30.264 205.113 29.56 205.433 28.984C205.689 28.536 206.073 28.152 206.521 27.896C206.937 27.64 207.449 27.48 207.993 27.416C209.017 27.32 210.201 27.576 211.385 28.28C211.705 28.44 211.801 28.856 211.641 29.144C211.577 29.24 211.545 29.304 211.481 29.336C210.809 29.976 210.009 30.616 209.209 31.224C207.993 32.184 206.873 33.08 206.841 33.4C206.841 33.464 207.033 33.304 207.481 33.336C207.993 33.368 208.505 33.464 209.049 33.656C210.617 32.504 212.409 31.48 214.457 30.552C214.777 30.392 215.161 30.552 215.321 30.872C215.449 31.224 215.321 31.608 214.969 31.736C213.273 32.504 211.769 33.368 210.393 34.296C210.521 34.392 210.649 34.456 210.745 34.552C211.513 35.096 212.185 35.864 212.665 36.824C213.113 37.816 213.337 38.968 213.241 40.376C213.081 42.808 211.897 45.912 209.017 49.848C206.745 53.016 204.665 54.392 203.065 54.488C201.625 54.584 200.537 53.752 199.961 52.312C199.449 51.064 199.321 49.272 199.705 47.224C200.409 43.416 202.873 38.648 207.705 34.68C207.609 34.648 207.513 34.648 207.385 34.648C206.009 34.552 205.497 34.04 205.529 33.304C205.625 32.408 206.937 31.352 208.409 30.2C208.921 29.816 209.433 29.4 209.881 29.016C209.241 28.76 208.633 28.664 208.121 28.728C207.769 28.76 207.449 28.856 207.193 29.016C206.937 29.176 206.713 29.368 206.585 29.624C206.393 29.976 206.297 30.424 206.361 30.936ZM209.977 35.608C209.753 35.416 209.497 35.288 209.209 35.16C204.217 38.968 201.689 43.736 201.017 47.48C200.665 49.272 200.761 50.776 201.177 51.832C201.529 52.728 202.169 53.24 202.969 53.176C204.217 53.08 205.913 51.896 207.961 49.08C210.681 45.368 211.769 42.488 211.929 40.312C212.025 39.128 211.833 38.168 211.481 37.4C211.129 36.632 210.585 36.024 209.977 35.608ZM215.551 28.216C215.711 27.896 216.095 27.8 216.415 27.96C216.735 28.12 216.863 28.536 216.703 28.856C216.703 28.856 215.327 31.352 214.719 32.824C215.135 32.376 215.615 31.8 216.127 31.224C217.823 29.272 219.743 27.032 220.735 27.256C221.375 27.416 221.631 28.056 221.343 29.4C220.799 31.736 220.543 33.56 221.055 33.976C221.567 34.392 223.007 33.56 226.079 30.616C226.335 30.36 226.751 30.392 227.007 30.648C227.231 30.904 227.231 31.32 226.975 31.576C223.327 35.064 221.279 35.864 220.223 35C219.231 34.168 219.423 31.864 220.063 29.112C220.063 29.112 217.279 31.896 217.119 32.088C216.255 33.08 215.455 34.008 214.911 34.488C214.335 35 213.855 35.128 213.471 34.68C212.575 33.688 215.519 28.248 215.551 28.216ZM227.077 31.992C226.149 32.088 226.437 33.56 226.917 34.072C228.005 34.744 229.797 34.488 231.813 33.784C234.021 33.016 236.485 31.736 238.693 30.52C239.013 30.36 239.397 30.456 239.557 30.776C239.749 31.096 239.621 31.48 239.301 31.672C237.061 32.888 234.533 34.2 232.261 35C229.829 35.864 227.621 36.12 226.149 35.128C226.085 35.096 226.053 35.064 226.021 35.064C224.709 33.688 225.093 31.672 226.085 30.008C226.501 29.272 227.077 28.6 227.653 28.088C228.293 27.544 228.965 27.16 229.573 27.064C230.373 26.936 231.077 27.192 231.493 28.056C233.221 31.576 227.077 31.992 227.077 31.992ZM227.141 30.808C227.941 30.712 231.077 30.2 230.309 28.632C230.181 28.376 230.021 28.312 229.797 28.344C229.413 28.408 228.965 28.696 228.517 29.08C228.037 29.496 227.557 30.072 227.205 30.68C227.173 30.712 227.141 30.744 227.141 30.808ZM238.458 32.824C238.554 33.144 238.33 33.528 237.978 33.592C237.626 33.688 237.274 33.496 237.178 33.144C236.954 32.28 238.618 30.52 240.282 28.728C240.698 28.28 241.114 27.864 241.498 27.448C241.306 27.448 241.146 27.448 240.986 27.448C240.442 27.384 239.962 27.32 239.674 27.16C238.938 26.808 238.778 26.328 239.354 25.688C239.642 25.336 240.378 24.92 241.754 24.44C243.514 23.8 244.378 23.96 244.634 24.664C244.762 24.984 244.602 25.464 244.282 25.976C245.146 25.88 245.882 25.72 246.202 25.528C246.65 25.24 247.002 25.336 247.226 25.72C247.738 26.584 245.818 28.472 245.018 29.56C243.258 31.8 240.986 34.776 240.474 35.896C241.882 35.384 243.514 34.584 244.986 33.72C247.034 32.536 248.762 31.288 249.274 30.712C249.53 30.456 249.946 30.424 250.202 30.68C250.49 30.936 250.49 31.32 250.234 31.608C249.658 32.248 247.77 33.592 245.626 34.84C244.026 35.8 242.202 36.696 240.634 37.24C239.802 37.496 239.322 37.304 239.13 36.728C238.746 35.544 241.754 31.64 243.962 28.76C244.538 27.992 245.114 27.448 245.53 27.064C244.858 27.224 244.058 27.32 243.258 27.384C242.682 28.088 241.946 28.856 241.242 29.624C239.802 31.16 238.426 32.632 238.458 32.824ZM242.682 26.136C243.162 25.592 243.45 25.208 243.386 25.08C243.386 25.016 243.098 25.336 242.202 25.656C241.722 25.848 241.338 26.008 241.05 26.136H241.082C241.562 26.168 242.106 26.168 242.682 26.136Z" />
</svg>
